HIERARCHY
ROOT Bip01
{
  OFFSET 15.7446 31.5610 57.6474
  CHANNELS 6 Xposition Yposition Zposition Zrotation Xrotation Yrotation
  JOINT Bip01_Footsteps
  {
    OFFSET 53.2821 -0.0001 8.1953
    CHANNELS 6 Xposition Yposition Zposition Zrotation Xrotation Yrotation
    End Site
    {
      OFFSET 0 0 0
    }
  }
  JOINT b_Hips
  {
    OFFSET 0.0000 0.0000 0.0000
    CHANNELS 6 Xposition Yposition Zposition Zrotation Xrotation Yrotation
    JOINT b_Spine
    {
      OFFSET 10.4409 -1.6220 0.0000
      CHANNELS 6 Xposition Yposition Zposition Zrotation Xrotation Yrotation
      JOINT b_Spine1
      {
        OFFSET 8.8514 -0.0090 0.0000
        CHANNELS 6 Xposition Yposition Zposition Zrotation Xrotation Yrotation
        JOINT b_Spine2
        {
          OFFSET 11.3035 -0.0088 -0.0000
          CHANNELS 6 Xposition Yposition Zposition Zrotation Xrotation Yrotation
          JOINT b_Spine3
          {
            OFFSET 11.0297 -0.0113 0.0000
            CHANNELS 6 Xposition Yposition Zposition Zrotation Xrotation Yrotation
            JOINT b__Neck
            {
              OFFSET 14.9480 -3.1935 0.0000
              CHANNELS 6 Xposition Yposition Zposition Zrotation Xrotation Yrotation
              JOINT b__Neck1
              {
                OFFSET 5.4958 -0.0043 -0.0000
                CHANNELS 6 Xposition Yposition Zposition Zrotation Xrotation Yrotation
                JOINT b__Neck2
                {
                  OFFSET 5.5266 -0.0049 0.0000
                  CHANNELS 6 Xposition Yposition Zposition Zrotation Xrotation Yrotation
                  JOINT b_Head
                  {
                    OFFSET 6.1093 0.0000 0.0000
                    CHANNELS 6 Xposition Yposition Zposition Zrotation Xrotation Yrotation
                    JOINT Bip01_HeadNub
                    {
                      OFFSET 28.6688 -0.0000 0.0000
                      CHANNELS 6 Xposition Yposition Zposition Zrotation Xrotation Yrotation
                      End Site
                      {
                        OFFSET 0 0 0
                      }
                    }
                    JOINT Dog_Jaw
                    {
                      OFFSET 0.6075 2.3575 -0.0000
                      CHANNELS 6 Xposition Yposition Zposition Zrotation Xrotation Yrotation
                      End Site
                      {
                        OFFSET 0 0 0
                      }
                    }
                  }
                }
              }
            }
            JOINT b_LeftClav
            {
              OFFSET 10.4683 2.1257 3.5190
              CHANNELS 6 Xposition Yposition Zposition Zrotation Xrotation Yrotation
              JOINT b_LeftArm
              {
                OFFSET 7.3453 0.0000 0.0000
                CHANNELS 6 Xposition Yposition Zposition Zrotation Xrotation Yrotation
                JOINT b_LeftForeArm
                {
                  OFFSET 23.3863 -0.0000 0.0000
                  CHANNELS 6 Xposition Yposition Zposition Zrotation Xrotation Yrotation
                  JOINT b_LeftHand
                  {
                    OFFSET 21.5040 -0.0000 0.0000
                    CHANNELS 6 Xposition Yposition Zposition Zrotation Xrotation Yrotation
                    JOINT b__LeftFinger
                    {
                      OFFSET 1.5926 6.2126 -0.0138
                      CHANNELS 6 Xposition Yposition Zposition Zrotation Xrotation Yrotation
                      JOINT Bip01_L_Finger0Nub
                      {
                        OFFSET 23.3657 0.0000 0.0000
                        CHANNELS 6 Xposition Yposition Zposition Zrotation Xrotation Yrotation
                        End Site
                        {
                          OFFSET 0 0 0
                        }
                      }
                    }
                  }
                }
                JOINT Dog_LeftArmor002
                {
                  OFFSET 4.2035 4.4457 12.7354
                  CHANNELS 6 Xposition Yposition Zposition Zrotation Xrotation Yrotation
                  End Site
                  {
                    OFFSET 0 0 0
                  }
                }
              }
            }
            JOINT b_RightClav
            {
              OFFSET 10.4683 2.1257 -3.5189
              CHANNELS 6 Xposition Yposition Zposition Zrotation Xrotation Yrotation
              JOINT b_RightArm
              {
                OFFSET 7.3453 0.0000 -0.0000
                CHANNELS 6 Xposition Yposition Zposition Zrotation Xrotation Yrotation
                JOINT b_RightForeArm
                {
                  OFFSET 23.3863 0.0000 -0.0000
                  CHANNELS 6 Xposition Yposition Zposition Zrotation Xrotation Yrotation
                  JOINT b_RightHand
                  {
                    OFFSET 21.5040 0.0000 0.0000
                    CHANNELS 6 Xposition Yposition Zposition Zrotation Xrotation Yrotation
                    JOINT b_RightFinger
                    {
                      OFFSET 1.5926 6.2126 0.0138
                      CHANNELS 6 Xposition Yposition Zposition Zrotation Xrotation Yrotation
                      JOINT Bip01_R_Finger0Nub
                      {
                        OFFSET 23.3657 -0.0000 0.0000
                        CHANNELS 6 Xposition Yposition Zposition Zrotation Xrotation Yrotation
                        End Site
                        {
                          OFFSET 0 0 0
                        }
                      }
                    }
                  }
                }
                JOINT Dog_RightArmor002
                {
                  OFFSET 4.2034 4.4457 -12.7351
                  CHANNELS 6 Xposition Yposition Zposition Zrotation Xrotation Yrotation
                  End Site
                  {
                    OFFSET 0 0 0
                  }
                }
              }
            }
          }
        }
      }
    }
    JOINT b_Tail001
    {
      OFFSET -4.7889 3.8598 0.8608
      CHANNELS 6 Xposition Yposition Zposition Zrotation Xrotation Yrotation
      JOINT b_Tail002
      {
        OFFSET 5.0654 0.0000 -0.0000
        CHANNELS 6 Xposition Yposition Zposition Zrotation Xrotation Yrotation
        JOINT b_Tail003
        {
          OFFSET 4.9750 0.0000 -0.0000
          CHANNELS 6 Xposition Yposition Zposition Zrotation Xrotation Yrotation
          JOINT b_Tail004
          {
            OFFSET 4.7171 -0.0000 0.0000
            CHANNELS 6 Xposition Yposition Zposition Zrotation Xrotation Yrotation
            JOINT b_Tail005
            {
              OFFSET 9.7173 -0.0000 -0.0001
              CHANNELS 6 Xposition Yposition Zposition Zrotation Xrotation Yrotation
              JOINT b_Tail006
              {
                OFFSET 8.2617 0.0001 0.0000
                CHANNELS 6 Xposition Yposition Zposition Zrotation Xrotation Yrotation
                JOINT b_Tail007
                {
                  OFFSET 9.7599 -0.0001 0.0000
                  CHANNELS 6 Xposition Yposition Zposition Zrotation Xrotation Yrotation
                  JOINT b_Tail008
                  {
                    OFFSET 11.1530 0.0000 -0.0000
                    CHANNELS 6 Xposition Yposition Zposition Zrotation Xrotation Yrotation
                    JOINT b_Tail009
                    {
                      OFFSET 10.3039 0.0000 0.0000
                      CHANNELS 6 Xposition Yposition Zposition Zrotation Xrotation Yrotation
                      End Site
                      {
                        OFFSET 0 0 0
                      }
                    }
                  }
                }
              }
            }
          }
        }
      }
    }
    JOINT Dog_LeftTail001
    {
      OFFSET -11.9878 -1.7857 10.1900
      CHANNELS 6 Xposition Yposition Zposition Zrotation Xrotation Yrotation
      JOINT Dog_LeftTail002
      {
        OFFSET 8.4424 0.0000 0.0000
        CHANNELS 6 Xposition Yposition Zposition Zrotation Xrotation Yrotation
        JOINT Dog_LeftTail003
        {
          OFFSET 9.9501 0.0000 -0.0000
          CHANNELS 6 Xposition Yposition Zposition Zrotation Xrotation Yrotation
          JOINT Dog_LeftTail004
          {
            OFFSET 9.4342 0.0000 -0.0000
            CHANNELS 6 Xposition Yposition Zposition Zrotation Xrotation Yrotation
            JOINT Dog_LeftTail005
            {
              OFFSET 9.7173 0.0001 0.0001
              CHANNELS 6 Xposition Yposition Zposition Zrotation Xrotation Yrotation
              JOINT Dog_LeftTail006
              {
                OFFSET 8.2618 -0.0000 -0.0000
                CHANNELS 6 Xposition Yposition Zposition Zrotation Xrotation Yrotation
                JOINT Dog_LeftTail007
                {
                  OFFSET 9.7599 0.0000 0.0000
                  CHANNELS 6 Xposition Yposition Zposition Zrotation Xrotation Yrotation
                  JOINT Dog_LeftTail008
                  {
                    OFFSET 11.1529 -0.0001 -0.0001
                    CHANNELS 6 Xposition Yposition Zposition Zrotation Xrotation Yrotation
                    JOINT Dog_LeftTail009
                    {
                      OFFSET 10.3039 -0.0000 0.0000
                      CHANNELS 6 Xposition Yposition Zposition Zrotation Xrotation Yrotation
                      End Site
                      {
                        OFFSET 0 0 0
                      }
                    }
                  }
                }
              }
            }
          }
        }
      }
    }
    JOINT b_LeftLegUpper
    {
      OFFSET -0.0000 0.0000 9.9422
      CHANNELS 6 Xposition Yposition Zposition Zrotation Xrotation Yrotation
      JOINT b_LeftLeg
      {
        OFFSET 25.9795 0.0000 0.0000
        CHANNELS 6 Xposition Yposition Zposition Zrotation Xrotation Yrotation
        JOINT b_LeftLeg1
        {
          OFFSET 21.2087 0.0000 -0.0000
          CHANNELS 6 Xposition Yposition Zposition Zrotation Xrotation Yrotation
          JOINT b_LeftAnkle
          {
            OFFSET 10.4341 -0.0000 0.0000
            CHANNELS 6 Xposition Yposition Zposition Zrotation Xrotation Yrotation
            JOINT b_LeftToe
            {
              OFFSET 5.6676 6.5983 0.0000
              CHANNELS 6 Xposition Yposition Zposition Zrotation Xrotation Yrotation
              JOINT Bip01_L_Toe0Nub
              {
                OFFSET 8.6279 0.0000 -0.0000
                CHANNELS 6 Xposition Yposition Zposition Zrotation Xrotation Yrotation
                End Site
                {
                  OFFSET 0 0 0
                }
              }
            }
            JOINT b_LeftToe002
            {
              OFFSET 5.6741 -2.3619 -0.5306
              CHANNELS 6 Xposition Yposition Zposition Zrotation Xrotation Yrotation
              End Site
              {
                OFFSET 0 0 0
              }
            }
          }
        }
      }
      JOINT Dog_LeftArmor001
      {
        OFFSET -2.6287 -3.4254 -3.1462
        CHANNELS 6 Xposition Yposition Zposition Zrotation Xrotation Yrotation
        End Site
        {
          OFFSET 0 0 0
        }
      }
    }
    JOINT b_RightLegUpper
    {
      OFFSET 0.0000 -0.0000 -9.9422
      CHANNELS 6 Xposition Yposition Zposition Zrotation Xrotation Yrotation
      JOINT b_RightLeg
      {
        OFFSET 25.9795 0.0000 0.0000
        CHANNELS 6 Xposition Yposition Zposition Zrotation Xrotation Yrotation
        JOINT b_RightLeg1
        {
          OFFSET 21.2087 0.0000 0.0000
          CHANNELS 6 Xposition Yposition Zposition Zrotation Xrotation Yrotation
          JOINT b_RightAnkle
          {
            OFFSET 10.4341 -0.0000 -0.0000
            CHANNELS 6 Xposition Yposition Zposition Zrotation Xrotation Yrotation
            JOINT b_RightToe
            {
              OFFSET 5.6676 6.5983 -0.0000
              CHANNELS 6 Xposition Yposition Zposition Zrotation Xrotation Yrotation
              JOINT Bip01_R_Toe0Nub
              {
                OFFSET 8.6279 -0.0000 0.0000
                CHANNELS 6 Xposition Yposition Zposition Zrotation Xrotation Yrotation
                End Site
                {
                  OFFSET 0 0 0
                }
              }
            }
            JOINT b_RightToe002
            {
              OFFSET 5.6741 -2.3620 0.5304
              CHANNELS 6 Xposition Yposition Zposition Zrotation Xrotation Yrotation
              End Site
              {
                OFFSET 0 0 0
              }
            }
          }
        }
      }
      JOINT Dog_RightArmor001
      {
        OFFSET -2.6288 -3.4254 3.1460
        CHANNELS 6 Xposition Yposition Zposition Zrotation Xrotation Yrotation
        End Site
        {
          OFFSET 0 0 0
        }
      }
    }
  }
}
MOTION
Frames: 4
Frame Time: 0.00833333
43.262 52.2854 347.497 88.4538 18.6743 -164.578 53.2821 -6.35e-05 8.19533 -90 -81.2558 -180 0 0 0 -89.9999 -5.43972e-14 -90 10.4409 -1.622 1.78e-05 -5.57289 0.0937151 -6.25129 8.8514 -0.0089989 -1.42109e-14 -7.98538 3.78677 -5.77681 11.3035 -0.0087814 -2.84217e-14 -8.72561 -0.37851 -5.03034 11.0297 -0.0113029 0 -3.82079 0.172304 -2.86814 14.948 -3.19349 8.6e-06 -73.4916 -17.7603 12.5219 5.49578 -0.0042877 0 16.8395 -11.5348 -22.2921 5.52657 -0.0048637 -1.42109e-14 2.53612 -8.61004 3.48162 6.10934 1.13687e-13 -3.55271e-15 57.0684 7.16346 0.239093 28.6688 -2.84217e-14 7.10543e-15 -1.59028e-15 7.95139e-16 1.59028e-15 0.607494 2.35752 -7.6e-06 -156.427 -0.000147608 180 10.4683 2.1257 3.51896 179.373 0.74849 -92.4887 7.34534 0 1.9e-06 -8.95348 -84.4881 95.753 23.3863 -1.9e-06 1e-06 7.05636 -0.762107 -1.15686 21.504 0 2.84217e-14 -104.644 -5.83423 -0.947985 1.59262 6.21256 -0.0138378 -3.72652 0.830796 1.56757 23.3657 0 1e-06 -3.18055e-15 3.18055e-15 -3.18055e-15 4.20345 4.44573 12.7354 172.377 0.21838 -87.1877 10.4683 2.12572 -3.51895 172.833 15.8824 96.6532 7.34534 0 -1.9e-06 -14.8995 60.3192 -79.7694 23.3863 1.9e-06 0 -61.8051 -3.18055e-15 -6.36111e-15 21.504 3.8e-06 1e-06 -73.3464 -18.912 12.8767 1.59262 6.21257 0.0138388 -36.7723 -8.73189 4.3775 23.3657 0 1e-06 180 1.59028e-15 9.14409e-15 4.20337 4.4457 -12.7351 172.377 -0.218352 87.1876 -4.78895 3.85983 0.86083 -171.903 -0.280126 -32.8417 5.0654 4.578e-05 -6.84e-06 7.55454 12.6994 -13.9798 4.97505 3.8e-06 -6.7e-06 -6.94121 10.1289 -0.416956 4.7171 -1.145e-05 2.86e-05 -6.36111e-15 3.18055e-15 1.59028e-15 9.71734 -4.2e-05 -5.72e-05 -3.18055e-15 7.95139e-15 3.18055e-15 8.26175 8.01e-05 5.7e-06 -6.36111e-15 6.36111e-15 -0 9.75986 -6.48e-05 2.86e-05 -3.18055e-15 -7.15625e-15 6.36111e-15 11.153 2.67e-05 -2.1e-05 4.41391e-31 -7.95139e-15 3.18055e-15 10.3039 1.14e-05 4.2e-05 7.06225e-31 -6.36111e-15 6.36111e-15 -11.9878 -1.78568 10.19 170.606 3.62573 1.11034 8.44238 1.53e-05 4.2e-05 7.95139e-16 3.97569e-16 -0 9.95005 7.6e-06 -2.86e-05 1.59028e-15 -7.95139e-16 -3.18055e-15 9.43418 -7.10543e-15 -4.58e-05 -0 0 -6.36111e-15 9.71733 6.87e-05 0.0001106 -0 0 -6.36111e-15 8.26175 -2.29e-05 -4.77e-05 1.59028e-15 7.95139e-16 -6.36111e-15 9.75994 2.86e-05 3.05e-05 -0 0 3.18055e-15 11.1529 -7.25e-05 -5.91e-05 -0 1.98785e-16 -0 10.3039 -7.6e-06 0 -0 -3.97569e-16 -0 -1.14e-05 1.53e-05 9.94222 -122.71 13.1128 -166.707 25.9795 1e-06 5.68434e-14 -79.8744 0.569486 -1.06844 21.2087 1.9e-06 -1e-06 75.6976 5.43737 0.604897 10.4341 -1.9e-06 1e-06 -16.9455 -2.99258 4.23877 5.66763 6.59832 0 84.3313 17.4209 -8.59761 8.62785 -2.84217e-14 0 -180 -1.44715e-13 -2.8625e-14 5.67414 -2.36194 -0.530567 -75.8081 4.38708 5.33411 -2.62874 -3.42539 -3.14618 29.7499 1.82752 90.2264 1.53e-05 -1.53e-05 -9.94222 -125.788 -16.9789 170.135 25.9795 -5.68434e-14 1e-06 -56.2336 -1.00359 2.39578 21.2087 0 1.9e-06 81.4764 -12.421 12.6095 10.4341 -1.9e-06 -1e-06 -13.372 -0.170412 -7.45299 5.66763 6.59831 0 76.0498 4.23152 -2.94637 8.62785 1.42109e-14 0 -3.18055e-15 0 -0 5.67412 -2.36198 0.530356 -75.808 -4.38692 -5.33418 -2.62878 -3.42545 3.14601 29.7498 -1.82753 -90.2266
43.7374 52.1471 348.309 89.1834 20.1498 -165.018 53.2821 -6.35e-05 8.19533 -90 -81.2558 -180 0 0 0 -89.9999 -4.1675e-14 -90 10.4409 -1.622 1.78e-05 -5.37804 0.0575914 -5.58194 8.8514 -0.0089989 2.84217e-14 -8.57095 3.8151 -5.11121 11.3035 -0.0087814 -2.84217e-14 -8.95132 -0.269445 -4.51587 11.0297 -0.0113029 2.84217e-14 -3.85445 0.0323154 -2.45833 14.948 -3.19349 8.6e-06 -74.5582 -18.7257 13.5445 5.49578 -0.0042877 1.42109e-14 18.6769 -11.4735 -23.0793 5.52657 -0.0048637 0 2.57773 -8.14965 3.60214 6.10934 5.68434e-14 3.55271e-15 57.0532 7.2415 0.0101707 28.6688 0 0 5.51738e-33 -1.98785e-16 1.59028e-15 0.607494 2.35752 -7.6e-06 -156.427 -0.000147608 180 10.4683 2.1257 3.51896 179.41 0.988938 -92.5953 7.34534 0 1.9e-06 -3.1219 -84.6873 100.72 23.3863 -1.9e-06 1e-06 6.33757 -0.747533 -1.16633 21.504 0 2.84217e-14 -102.758 -5.86213 -0.755776 1.59262 6.21256 -0.0138378 -3.36593 1.02141 1.18566 23.3657 -1.42109e-14 1e-06 3.18055e-15 3.18055e-15 9.54166e-15 4.20345 4.44573 12.7354 172.377 0.21838 -87.1877 10.4683 2.12572 -3.51895 173.251 15.696 95.4715 7.34534 0 -1.9e-06 -18.9369 58.4821 -76.2637 23.3863 1.9e-06 0 -63.3799 -1.27222e-14 3.18055e-15 21.504 3.8e-06 1e-06 -69.4764 -17.2862 13.8397 1.59262 6.21257 0.0138388 -37.9737 -8.83234 4.29196 23.3657 0 1e-06 180 -1.59028e-15 -5.56597e-15 4.20337 4.4457 -12.7351 172.377 -0.218352 87.1876 -4.78895 3.85983 0.86083 -171.773 -0.543986 -31.9191 5.0654 4.578e-05 -6.84e-06 8.39726 11.0628 -12.4895 4.97505 3.8e-06 -6.7e-06 -7.22495 10.0359 -0.366799 4.7171 -1.145e-05 2.86e-05 3.18055e-15 -7.15625e-15 1.59028e-15 9.71734 -4.2e-05 -5.72e-05 6.62086e-32 2.38542e-15 -1.59028e-15 8.26175 8.01e-05 5.7e-06 3.18055e-15 4.77083e-15 -1.59028e-15 9.75986 -6.48e-05 2.86e-05 -3.18055e-15 -4.77083e-15 -4.77083e-15 11.153 2.67e-05 -2.1e-05 -0 3.18055e-15 -0 10.3039 1.14e-05 4.2e-05 -3.18055e-15 6.36111e-15 -6.36111e-15 -11.9878 -1.78568 10.19 170.606 3.62573 1.11034 8.44238 1.53e-05 4.2e-05 -1.59028e-15 1.59028e-15 -3.18055e-15 9.95005 7.6e-06 -2.86e-05 -3.31043e-32 5.96354e-16 3.18055e-15 9.43418 0 -4.58e-05 -7.95139e-16 3.97569e-16 3.18055e-15 9.71733 6.87e-05 0.0001106 -0 0 3.18055e-15 8.26175 -2.29e-05 -4.77e-05 -7.95139e-16 -1.98785e-16 3.18055e-15 9.75994 2.86e-05 3.05e-05 -0 0 3.18055e-15 11.1529 -7.25e-05 -5.91e-05 -2.20695e-32 3.97569e-16 3.18055e-15 10.3039 -7.6e-06 -2.84217e-14 6.62086e-32 -1.19271e-15 3.18055e-15 -1.14e-05 1.53e-05 9.94222 -120.453 12.551 -166.432 25.9795 1e-06 0 -77.7159 0.528838 -1.08913 21.2087 1.9e-06 -1e-06 73.3562 4.33229 0.892767 10.4341 -1.9e-06 1e-06 -17.1075 -3.00456 4.2303 5.66763 6.59832 0 84.9187 18.0298 -8.75423 8.62785 -2.84217e-14 -1.42109e-14 -180 0 -6.36111e-15 5.67414 -2.36194 -0.530567 -75.8081 4.38708 5.33411 -2.62874 -3.42539 -3.14618 29.7499 1.82752 90.2264 1.53e-05 -1.53e-05 -9.94222 -125.693 -18.6614 170.589 25.9795 0 1e-06 -55.3476 -0.966403 2.41101 21.2087 5.68434e-14 1.9e-06 81.8698 -12.4404 12.9891 10.4341 -1.9e-06 -1e-06 -13.1681 -0.491281 -7.49428 5.66763 6.59831 0 76.0662 4.10196 -2.84939 8.62785 0 1.42109e-14 -1.10348e-32 -3.97569e-16 -1.59028e-15 5.67412 -2.36198 0.530355 -75.808 -4.38692 -5.33418 -2.62878 -3.42545 3.14601 29.7498 -1.82753 -90.2266
44.2263 51.9867 349.128 89.943 21.7003 -165.658 53.2821 -6.35e-05 8.19533 -90 -81.2558 -180 0 0 0 -89.9999 -4.1675e-14 -90 10.4409 -1.622 1.78e-05 -5.09786 0.00861842 -4.94024 8.8514 -0.0089989 0 -9.11707 3.68845 -4.27853 11.3035 -0.0087814 2.84217e-14 -9.12851 -0.125204 -3.9153 11.0297 -0.0113029 0 -3.94015 -0.0454672 -2.0742 14.948 -3.19349 8.6e-06 -75.1752 -19.145 14.4054 5.49578 -0.0042877 -1.42109e-14 20.1891 -11.3563 -23.321 5.52657 -0.0048637 7.10543e-15 2.59234 -7.77273 3.67275 6.10934 0 3.55271e-15 57.171 7.14849 -0.337437 28.6688 1.42109e-14 0 -7.95139e-16 1.98785e-16 1.59028e-15 0.607494 2.35752 -7.6e-06 -156.427 -0.000147608 180 10.4683 2.1257 3.51896 179.488 1.37474 -92.6093 7.34534 -1.42109e-14 1.9e-06 2.12456 -84.8236 104.834 23.3863 -1.9e-06 1e-06 5.52305 -0.730877 -1.17684 21.504 0 2.84217e-14 -100.579 -5.88651 -0.532782 1.59262 6.21256 -0.0138378 -2.73777 0.867864 0.707624 23.3657 0 1e-06 -0 1.59028e-15 -0 4.20345 4.44573 12.7354 172.377 0.21838 -87.1877 10.4683 2.12572 -3.51895 173.803 15.4366 94.2369 7.34534 0 -1.9e-06 -22.9743 56.6348 -72.7427 23.3863 1.9e-06 2.84217e-14 -64.6533 0 -1.59028e-14 21.504 3.8e-06 1e-06 -64.612 -15.1861 14.7983 1.59262 6.21257 0.0138388 -39.2781 -9.45696 3.86558 23.3657 0 1e-06 180 7.31528e-14 -1.19271e-15 4.20337 4.4457 -12.7351 172.377 -0.218352 87.1876 -4.78895 3.85983 0.86083 -171.827 -0.908315 -31.0957 5.0654 4.578e-05 -6.84e-06 9.33246 9.61398 -10.7003 4.97505 3.8e-06 -6.7e-06 -7.46667 9.95443 -0.326839 4.7171 -1.145e-05 2.86e-05 -3.18055e-15 6.36111e-15 -3.97569e-15 9.71734 -4.2e-05 -5.72e-05 -6.36111e-15 -7.95139e-16 3.18055e-15 8.26175 8.01e-05 5.7e-06 3.18055e-15 -3.18055e-15 -3.97569e-15 9.75986 -6.48e-05 2.86e-05 -0 0 1.59028e-15 11.153 2.67e-05 -2.1e-05 -1.10348e-32 3.97569e-16 1.59028e-15 10.3039 1.14e-05 4.2e-05 3.18055e-15 2.78299e-15 -3.97569e-15 -11.9878 -1.78568 10.19 170.606 3.62573 1.11034 8.44238 1.53e-05 4.2e-05 3.97569e-16 -3.97569e-16 -0 9.95005 7.6e-06 -2.86e-05 -0 7.95139e-16 -0 9.43418 0 -4.58e-05 -3.97569e-16 -3.97569e-16 3.18055e-15 9.71733 6.87e-05 0.0001106 -7.95139e-16 0 3.18055e-15 8.26175 -2.29e-05 -4.77e-05 1.59028e-15 5.96354e-16 3.18055e-15 9.75994 2.86e-05 3.05e-05 -1.19271e-15 -7.95139e-16 -3.18055e-15 11.1529 -7.25e-05 -5.91e-05 -7.95139e-16 -3.97569e-16 -3.18055e-15 10.3039 -7.6e-06 -1.42109e-14 -0 5.96354e-16 -0 -1.14e-05 1.53e-05 9.94222 -118.13 12.048 -166.031 25.9795 1e-06 -2.84217e-14 -75.1732 0.479994 -1.11152 21.2087 1.9e-06 -1e-06 70.9999 3.05151 1.21206 10.4341 -1.9e-06 1e-06 -17.0712 -3.00188 4.2322 5.66763 6.59832 2.84217e-14 85.0827 18.0871 -8.57387 8.62785 -2.84217e-14 -1.42109e-14 -180 -3.18055e-15 -3.18055e-15 5.67414 -2.36194 -0.530567 -75.8081 4.38708 5.33411 -2.62874 -3.42539 -3.14618 29.7499 1.82752 90.2264 1.53e-05 -1.53e-05 -9.94222 -125.476 -20.4569 170.994 25.9795 0 1e-06 -54.5296 -0.931867 2.42456 21.2087 -5.68434e-14 1.9e-06 82.2751 -12.5262 13.3631 10.4341 -1.9e-06 -1e-06 -13.0116 -0.669839 -7.47022 5.66763 6.59831 7.10543e-15 76.0589 3.96811 -2.77684 8.62785 0 1.42109e-14 -9.54166e-15 7.95139e-16 1.59028e-15 5.67412 -2.36198 0.530356 -75.808 -4.38692 -5.33418 -2.62878 -3.42545 3.14601 29.7498 -1.82753 -90.2266
44.7289 51.8065 349.962 90.6569 23.2923 -166.439 53.2821 -6.35e-05 8.19533 -90 -81.2558 -180 0 0 0 -89.9999 -4.1675e-14 -90 10.4409 -1.622 1.78e-05 -4.82859 -0.093804 -4.33307 8.8514 -0.0089989 1.42109e-14 -9.51918 3.3935 -3.29523 11.3035 -0.0087814 -2.84217e-14 -9.24245 0.0388334 -3.23518 11.0297 -0.0113029 2.84217e-14 -4.06797 -0.0781944 -1.72784 14.948 -3.19349 8.6e-06 -75.1929 -19.1542 15.3833 5.49578 -0.0042877 0 21.0073 -11.2574 -23.4059 5.52657 -0.0048637 7.10543e-15 2.58505 -7.47683 3.69826 6.10934 -5.68434e-14 3.55271e-15 57.3905 6.94364 -0.739218 28.6688 0 0 -7.95139e-16 3.97569e-16 -1.59028e-15 0.607494 2.35752 -7.6e-06 -156.427 -0.000147608 180 10.4683 2.1257 3.51896 179.527 1.86851 -92.5336 7.34534 1.42109e-14 1.9e-06 5.99928 -84.9301 107.345 23.3863 -1.9e-06 1e-06 4.65158 -0.712892 -1.18782 21.504 0 0 -98.2031 -5.90345 -0.288737 1.59262 6.21256 -0.0138378 -1.83111 0.422212 0.177285 23.3657 0 1e-06 -3.18055e-15 1.59028e-15 -0 4.20345 4.44573 12.7354 172.377 0.21838 -87.1877 10.4683 2.12572 -3.51895 174.526 15.1228 93.0629 7.34534 0 -1.9e-06 -26.8768 54.8655 -69.3885 23.3863 1.9e-06 -2.84217e-14 -65.668 9.54166e-15 -1.27222e-14 21.504 3.8e-06 1e-06 -58.903 -12.2918 16.3992 1.59262 6.21257 0.0138388 -41.0611 -10.703 3.1516 23.3657 5.68434e-14 1e-06 180 2.54444e-14 -1.59028e-15 4.20337 4.4457 -12.7351 172.377 -0.218352 87.1876 -4.78895 3.85983 0.86083 -171.892 -1.40738 -30.4404 5.0654 4.578e-05 -6.84e-06 10.167 8.58843 -9.14412 4.97505 3.8e-06 -6.7e-06 -7.64923 9.90332 -0.304943 4.7171 -1.145e-05 2.86e-05 -6.36111e-15 -5.56597e-15 3.18055e-15 9.71734 -4.2e-05 -5.72e-05 -6.36111e-15 -5.56597e-15 4.77083e-15 8.26175 8.01e-05 5.7e-06 -6.36111e-15 0 1.59028e-15 9.75986 -6.48e-05 2.86e-05 -3.18055e-15 2.38542e-15 -1.59028e-15 11.153 2.67e-05 -2.1e-05 3.18055e-15 1.98785e-15 2.38542e-15 10.3039 1.14e-05 4.2e-05 -3.18055e-15 5.96354e-15 7.95139e-16 -11.9878 -1.78568 10.19 170.606 3.62573 1.11034 8.44238 1.53e-05 4.2e-05 7.95139e-16 1.59028e-15 -3.18055e-15 9.95005 7.6e-06 -2.86e-05 -7.95139e-16 1.59028e-15 -0 9.43418 7.10543e-15 -4.58e-05 3.97569e-16 9.93923e-16 -3.18055e-15 9.71733 6.87e-05 0.0001106 4.41391e-32 7.95139e-16 -3.18055e-15 8.26175 -2.29e-05 -4.77e-05 -3.97569e-16 1.78906e-15 -0 9.75994 2.86e-05 3.05e-05 3.97569e-16 -1.98785e-16 -3.18055e-15 11.1529 -7.25e-05 -5.91e-05 3.97569e-16 -1.98785e-16 -0 10.3039 -7.6e-06 0 -0 5.96354e-16 -0 -1.14e-05 1.53e-05 9.94222 -116.012 11.8875 -165.406 25.9795 1e-06 0 -72.7742 0.433043 -1.13064 21.2087 1.9e-06 -1e-06 69.2429 1.97867 1.514 10.4341 -1.9e-06 1e-06 -16.4366 -2.95479 4.26517 5.66763 6.59832 -2.84217e-14 85.4244 17.5872 -8.19276 8.62785 0 0 -180 3.81667e-14 -4.13472e-14 5.67414 -2.36194 -0.530567 -75.8081 4.38708 5.33411 -2.62874 -3.42539 -3.14618 29.7499 1.82752 90.2264 1.53e-05 -1.53e-05 -9.94222 -125.228 -22.2437 171.297 25.9795 5.68434e-14 1e-06 -53.8207 -0.901784 2.4359 21.2087 0 1.9e-06 82.7166 -12.6436 13.7019 10.4341 -1.9e-06 -1e-06 -12.8905 -0.610975 -7.40461 5.66763 6.59831 -7.10543e-15 76.0261 3.77895 -2.70729 8.62785 -1.42109e-14 1.42109e-14 3.18055e-15 0 -0 5.67412 -2.36198 0.530355 -75.808 -4.38692 -5.33418 -2.62878 -3.42545 3.14601 29.7498 -1.82753 -90.2266
